<?xml version="1.0" encoding="UTF-8" standalone="no"?>
<!DOCTYPE svg PUBLIC "-//W3C//DTD SVG 1.1//EN" "http://www.w3.org/Graphics/SVG/1.1/DTD/svg11.dtd">
<svg width="100%" height="100%" viewBox="0 0 96 96" version="1.1" style="fill-rule:evenodd;clip-rule:evenodd;stroke-linejoin:round;stroke-miterlimit:2;">
    <g transform="matrix(1.64032,-1.64032,1.64032,1.64032,-102.499,56.5533)">
        <path d="M44.546,39.354L25.066,39.354C23.989,39.354 23.114,40.229 23.114,41.306L23.114,45.209C23.114,46.286 23.989,47.161 25.066,47.161L44.546,47.161L44.546,66.641C44.546,67.718 45.421,68.593 46.498,68.593L50.401,68.593C51.478,68.593 52.353,67.718 52.353,66.641L52.353,47.161L71.833,47.161C72.91,47.161 73.785,46.286 73.785,45.209L73.785,41.306C73.785,40.229 72.91,39.354 71.833,39.354L52.353,39.354L52.353,19.874C52.353,18.797 51.478,17.922 50.401,17.922L46.498,17.922C45.421,17.922 44.546,18.797 44.546,19.874L44.546,39.354Z"/>
    </g>
</svg>
