<?xml version="1.0" encoding="UTF-8" standalone="no"?>
<!DOCTYPE svg PUBLIC "-//W3C//DTD SVG 1.1//EN" "http://www.w3.org/Graphics/SVG/1.1/DTD/svg11.dtd">
<svg width="100%" height="100%" viewBox="0 0 96 96" version="1.1" style="fill-rule:evenodd;clip-rule:evenodd;stroke-linejoin:round;stroke-miterlimit:2;">
    <path d="M48,0C74.492,0 96,21.508 96,48C96,74.492 74.492,96 48,96C21.508,96 0,74.492 0,48C0,21.508 21.508,0 48,0ZM38.686,45L22.423,61.263C20.862,62.825 20.862,65.359 22.423,66.92L28.08,72.577C29.641,74.138 32.175,74.138 33.737,72.577L50,56.314L66.263,72.577C67.825,74.138 70.359,74.138 71.92,72.577L77.577,66.92C79.138,65.359 79.138,62.825 77.577,61.263L61.314,45L77.577,28.737C79.138,27.175 79.138,24.641 77.577,23.08L71.92,17.423C70.359,15.862 67.825,15.862 66.263,17.423L50,33.686L33.737,17.423C32.175,15.862 29.641,15.862 28.08,17.423L22.423,23.08C20.862,24.641 20.862,27.175 22.423,28.737L38.686,45Z"/>
</svg>
