<?xml version="1.0" encoding="UTF-8" standalone="no"?>
<!DOCTYPE svg PUBLIC "-//W3C//DTD SVG 1.1//EN" "http://www.w3.org/Graphics/SVG/1.1/DTD/svg11.dtd">
<svg width="100%" height="100%" viewBox="0 0 96 96" version="1.1" style="fill-rule:evenodd;clip-rule:evenodd;stroke-linejoin:round;stroke-miterlimit:2;">
    <g transform="matrix(1.02188,0,0,1.02188,0.0749898,-3.20857)">
        <path d="M51.556,3.453C48.542,3.16 45.508,3.16 42.494,3.453L41.002,10.718C38.114,11.16 35.283,11.919 32.56,12.98L27.635,7.434C24.879,8.688 22.251,10.205 19.788,11.965L22.128,19.003C19.848,20.83 17.775,22.903 15.949,25.183L8.91,22.843C7.15,25.306 5.633,27.934 4.38,30.69L9.925,35.615C8.864,38.338 8.106,41.168 7.664,44.057L0.398,45.549C0.105,48.562 0.105,51.597 0.398,54.61L7.664,56.103C8.106,58.991 8.864,61.822 9.925,64.544L4.38,69.469C5.633,72.225 7.15,74.854 8.91,77.317L15.949,74.977C17.775,77.257 19.848,79.329 22.128,81.156L19.788,88.194C22.251,89.955 24.879,91.472 27.635,92.725L32.56,87.179C35.283,88.241 38.114,88.999 41.002,89.441L42.494,96.707C45.508,96.999 48.542,96.999 51.556,96.707L53.048,89.441C55.936,88.999 58.767,88.241 61.489,87.179L66.415,92.725C69.171,91.472 71.799,89.955 74.262,88.194L71.922,81.156C74.202,79.329 76.274,77.257 78.101,74.977L85.139,77.317C86.9,74.854 88.417,72.225 89.67,69.469L84.124,64.544C85.186,61.822 85.944,58.991 86.386,56.103L93.652,54.61C93.944,51.597 93.944,48.562 93.652,45.549L86.386,44.057C85.944,41.168 85.186,38.338 84.124,35.615L89.67,30.69C88.417,27.934 86.9,25.306 85.139,22.843L78.101,25.183C76.274,22.903 74.202,20.83 71.922,19.003L74.262,11.965C71.799,10.205 69.171,8.688 66.415,7.434L61.489,12.98C58.767,11.919 55.936,11.16 53.048,10.718L51.556,3.453ZM47.025,36.304C54.628,36.304 60.801,42.476 60.801,50.08C60.801,57.683 54.628,63.856 47.025,63.856C39.422,63.856 33.249,57.683 33.249,50.08C33.249,42.476 39.422,36.304 47.025,36.304Z"/>
    </g>
</svg>
