<?xml version="1.0" encoding="UTF-8" standalone="no"?>
<!DOCTYPE svg PUBLIC "-//W3C//DTD SVG 1.1//EN" "http://www.w3.org/Graphics/SVG/1.1/DTD/svg11.dtd">
<svg width="100%" height="100%" viewBox="0 0 96 96" version="1.1" style="fill-rule:evenodd;clip-rule:evenodd;stroke-linejoin:round;stroke-miterlimit:2;">
    <g transform="matrix(4.80071,0,0,4.80071,0.0190986,-2.29735)">
        <path d="M16.88,9.1C18.694,9.513 19.991,11.14 19.991,13C19.991,15.191 18.191,16.995 16,17L5,17C4.998,17 4.997,17 4.995,17C2.252,17 -0.005,14.743 -0.005,12C-0.005,9.631 1.678,7.571 4,7.1L4,6.996C4,5.351 5.354,3.996 7,3.996C7.534,3.996 8.059,4.139 8.52,4.41C9.452,3.489 10.71,2.972 12.02,2.972C14.752,2.972 17,5.22 17,7.952C17,7.968 17,7.984 17,8C17,8.38 16.96,8.74 16.88,9.1ZM11,11.248C11,11.111 11.111,11 11.248,11C11.732,11 12.809,11 13.463,11C13.553,11 13.634,10.946 13.669,10.863C13.703,10.78 13.684,10.684 13.62,10.62C12.747,9.747 10.632,7.632 10.115,7.115C10.052,7.052 9.948,7.052 9.885,7.115C9.368,7.632 7.253,9.747 6.38,10.62C6.316,10.684 6.297,10.78 6.331,10.863C6.366,10.946 6.447,11 6.537,11C7.191,11 8.268,11 8.752,11C8.889,11 9,11.111 9,11.248C9,11.822 9,13.231 9,13.778C9,13.9 9.1,14 9.222,14C9.607,14 10.393,14 10.778,14C10.9,14 11,13.9 11,13.778C11,13.231 11,11.822 11,11.248Z" style="fill-rule:nonzero;"/>
    </g>
</svg>
