<?xml version="1.0" encoding="UTF-8" standalone="no"?>
<!DOCTYPE svg PUBLIC "-//W3C//DTD SVG 1.1//EN" "http://www.w3.org/Graphics/SVG/1.1/DTD/svg11.dtd">
<svg width="100%" height="100%" viewBox="0 0 96 96" version="1.1" style="fill-rule:evenodd;clip-rule:evenodd;stroke-linejoin:round;stroke-miterlimit:2;">
    <path d="M77.449,79.228L77.449,74.302C77.449,71.655 79.598,69.505 82.246,69.505C84.894,69.505 87.044,71.655 87.044,74.302L87.044,83.678C87.052,83.793 87.056,83.909 87.056,84.026C87.056,86.674 84.907,88.823 82.259,88.823L14.622,88.823C11.974,88.823 9.824,86.674 9.824,84.026C9.824,83.909 9.828,83.793 9.837,83.678L9.837,74.302C9.837,71.655 11.986,69.505 14.634,69.505C17.282,69.505 19.432,71.655 19.432,74.302L19.432,79.228L77.449,79.228Z"/>
    <path d="M42.974,48.8L42.974,10.983C42.974,8.262 45.183,6.053 47.904,6.053C50.625,6.053 52.834,8.262 52.834,10.983L52.834,48.618L63.667,39.602C65.758,37.861 68.87,38.146 70.61,40.238C72.351,42.329 72.066,45.44 69.975,47.181L51.398,62.642C50.432,63.662 49.117,64.184 47.794,64.178C46.472,64.184 45.157,63.662 44.191,62.642L25.614,47.181C23.523,45.44 23.238,42.329 24.978,40.238C26.719,38.146 29.83,37.861 31.922,39.602L42.974,48.8Z"/>
</svg>
