<?xml version="1.0" encoding="UTF-8" standalone="no"?>
<!DOCTYPE svg PUBLIC "-//W3C//DTD SVG 1.1//EN" "http://www.w3.org/Graphics/SVG/1.1/DTD/svg11.dtd">
<svg width="100%" height="100%" viewBox="0 0 96 96" version="1.1" style="fill-rule:evenodd;clip-rule:evenodd;stroke-linejoin:round;stroke-miterlimit:2;">
    <g transform="matrix(1.02188,0,0,1.02188,0.0749898,-3.20857)">
        <g transform="matrix(0.923449,0,0,1.00737,-7.64724,1.33367)">
            <path d="M48.113,11.188C48.113,6.204 43.699,2.158 38.263,2.158L18.563,2.158C13.126,2.158 8.713,6.204 8.713,11.188L8.713,85.83C8.713,90.814 13.126,94.86 18.563,94.86L38.263,94.86C43.699,94.86 48.113,90.814 48.113,85.83L48.113,11.188Z"/>
        </g>
        <g transform="matrix(0.923449,0,0,1.00737,49.2329,1.33367)">
            <path d="M48.113,11.188C48.113,6.204 43.699,2.158 38.263,2.158L18.563,2.158C13.126,2.158 8.713,6.204 8.713,11.188L8.713,85.83C8.713,90.814 13.126,94.86 18.563,94.86L38.263,94.86C43.699,94.86 48.113,90.814 48.113,85.83L48.113,11.188Z"/>
        </g>
    </g>
</svg>
