<?xml version="1.0" encoding="UTF-8" standalone="no"?>
<!DOCTYPE svg PUBLIC "-//W3C//DTD SVG 1.1//EN" "http://www.w3.org/Graphics/SVG/1.1/DTD/svg11.dtd">
<svg width="100%" height="100%" viewBox="0 0 96 96" version="1.1" style="fill-rule:evenodd;clip-rule:evenodd;stroke-linejoin:round;stroke-miterlimit:2;">
    <g transform="matrix(-2.41975e-16,1.31725,-1.31725,-2.41975e-16,88.8482,-14.5441)">
        <path d="M45.711,-0.825C46.047,-1.496 46.733,-1.92 47.483,-1.92C48.233,-1.92 48.919,-1.496 49.255,-0.825C55.42,11.506 75.866,52.398 81.474,63.613C81.781,64.227 81.748,64.957 81.387,65.541C81.026,66.125 80.389,66.48 79.702,66.48C67.916,66.48 27.049,66.48 15.263,66.48C14.576,66.48 13.939,66.125 13.578,65.541C13.217,64.957 13.184,64.227 13.491,63.613C19.099,52.398 39.546,11.506 45.711,-0.825Z"/>
    </g>
</svg>
