<?xml version="1.0" encoding="UTF-8" standalone="no"?>
<!DOCTYPE svg PUBLIC "-//W3C//DTD SVG 1.1//EN" "http://www.w3.org/Graphics/SVG/1.1/DTD/svg11.dtd">
<svg width="100%" height="100%" viewBox="0 0 96 96" version="1.1" style="fill-rule:evenodd;clip-rule:evenodd;stroke-linejoin:round;stroke-miterlimit:2;">
    <g transform="matrix(1,0,0,1,0,-1)">
        <path d="M68.331,1.759C83.002,1.759 94.913,13.67 94.913,28.34C94.913,43.011 83.002,54.922 68.331,54.922C53.661,54.922 41.751,43.011 41.751,28.34C41.751,13.67 53.661,1.759 68.331,1.759ZM68.331,10.654C78.093,10.654 86.017,18.579 86.017,28.34C86.017,38.102 78.093,46.027 68.331,46.027C58.571,46.027 50.645,38.102 50.645,28.34C50.645,18.579 58.571,10.654 68.331,10.654Z"/>
    </g>
    <g transform="matrix(1.09359,1.09391,-0.837716,0.837467,58.802,4.34778)">
        <path d="M20.591,79.814C20.677,81.322 20.138,82.799 19.1,83.897C18.063,84.995 16.619,85.617 15.109,85.617L14.926,85.617C13.416,85.617 11.972,84.995 10.934,83.897C9.897,82.799 9.358,81.322 9.444,79.814C10.073,68.745 11.425,44.976 11.898,36.659C11.992,35.005 13.361,33.712 15.017,33.712L15.018,33.712C16.674,33.712 18.043,35.005 18.137,36.659C18.61,44.976 19.962,68.745 20.591,79.814Z"/>
    </g>
</svg>
