<?xml version="1.0" encoding="UTF-8" standalone="no"?>
<!DOCTYPE svg PUBLIC "-//W3C//DTD SVG 1.1//EN" "http://www.w3.org/Graphics/SVG/1.1/DTD/svg11.dtd">
<svg width="100%" height="100%" viewBox="0 0 96 96" version="1.1" style="fill-rule:evenodd;clip-rule:evenodd;stroke-linejoin:round;stroke-miterlimit:2;">
    <g transform="matrix(1.08909,0,0,1.08909,44.0919,4.64252)">
        <path d="M24.093,-2.648C36.55,-2.648 46.664,7.466 46.664,19.923C46.664,32.38 36.55,42.494 24.093,42.494C11.636,42.494 1.523,32.38 1.523,19.923C1.523,7.466 11.636,-2.648 24.093,-2.648ZM24.093,2.995C33.436,2.995 41.021,10.58 41.021,19.923C41.021,29.266 33.436,36.851 24.093,36.851C14.751,36.851 7.165,29.266 7.165,19.923C7.165,10.58 14.751,2.995 24.093,2.995Z"/>
    </g>
    <g transform="matrix(0.914508,0.91478,-0.91478,0.914508,68.0893,0.441907)">
        <path d="M20.591,79.814C20.677,81.322 20.138,82.799 19.1,83.897C18.063,84.995 16.619,85.617 15.109,85.617C15.048,85.617 14.987,85.617 14.926,85.617C13.416,85.617 11.972,84.995 10.934,83.897C9.897,82.799 9.358,81.322 9.444,79.814C10.073,68.745 11.425,44.976 11.898,36.659C11.992,35.005 13.361,33.712 15.017,33.712C15.017,33.712 15.018,33.712 15.018,33.712C16.674,33.712 18.043,35.005 18.137,36.659C18.61,44.976 19.962,68.745 20.591,79.814Z"/>
    </g>
</svg>
